#!OML:ASF F:\VICON\USERDATA\INSTALL\rory3\rory3.ASF
:FULLY-SPECIFIED
:DEGREES
715
root -10.243 16.314 -13.8306 -143.657 -53.9935 -187.317
lowerback -14.3565 -4.2997 -1.0772
upperback -19.8588 -9.3131 -0.556219
thorax -14.3311 -6.00103 0.162988
lowerneck -3.28191 4.35755 -0.981955
upperneck 11.1446 5.38302 3.38876
head 4.10473 2.6809 1.53966
rclavicle -4.96962e-014 -1.66979e-014
rhumerus -19.2639 -45.5207 12.3878
rradius 14.6288
rwrist 41.8923
rhand 18.6993 0.152302
rfingers 7.12502
rthumb 43.3215 -23.979
lclavicle -4.96962e-014 -1.66979e-014
lhumerus 68.5867 -11.3536 28.3094
lradius 29.0203
lwrist -21.5973
lhand 12.2388 19.1456
lfingers 7.12502
lthumb 37.2465 45.1459
rfemur 299.244 0.59745 -336.247
rtibia 41.3497
rfoot 102.998 -215.715
rtoes 54.2588
lfemur -16.4754 -2.63162 -17.1376
ltibia 37.1478
lfoot 139.545 -153.199
ltoes 47.9698
716
root -10.3166 16.3698 -13.6559 -145.873 -55.09 -185.014
lowerback -13.0455 -3.5279 3.34181
upperback -19.7929 -8.45557 -0.855108
thorax -15.74 -6.18817 -2.31933
lowerneck -3.93942 4.29171 -1.10334
upperneck 11.1179 5.31769 3.45996
head 4.22232 2.65869 1.60431
rclavicle -1.23246e-014 -3.1408e-014
rhumerus -20.2645 -47.9373 14.0415
rradius 14.6582
rwrist 43.2026
rhand 18.3045 0.380155
rfingers 7.12502
rthumb 42.9525 -23.8826
lclavicle -1.23246e-014 -3.1408e-014
lhumerus 69.2997 -10.4293 28.2124
lradius 28.9862
lwrist -21.7221
lhand 12.6591 19.112
lfingers 7.12502
lthumb 37.6438 45.0072
rfemur 299.188 -9.82722 -327.381
rtibia 41.3045
rfoot 116.655 -212.055
rtoes 53.8845
lfemur -16.1567 -2.5709 -15.7646
ltibia 37.1766
lfoot 140.904 -151.802
ltoes 47.6185
717
root -10.2744 16.3118 -13.7749 -144.96 -53.5716 -185.504
lowerback -13.6401 -3.47934 0.866537
upperback -19.9707 -8.36865 -0.815281
thorax -15.2046 -5.82656 -1.02094
lowerneck -4.51163 4.23286 -1.09049
upperneck 11.2055 5.22075 3.70426
head 4.36548 2.63088 1.70276
rclavicle 1.18774e-013 1.12512e-013
rhumerus -21.1757 -47.3974 15.1686
rradius 14.7714
rwrist 42.2072
rhand 17.7235 0.838526
rfingers 7.12502
rthumb 42.4088 -23.6131
lclavicle 1.18774e-013 1.12512e-013
lhumerus 70.1407 -9.21547 33.3254
lradius 27.379
lwrist -26.4909
lhand 13.3872 17.5436
lfingers 7.12502
lthumb 38.3315 43.2518
rfemur 299.024 -1.07463 -333.702
rtibia 41.4006
rfoot 106.885 -216.105
rtoes 53.7253
lfemur -16.4908 -2.01913 -16.2034
ltibia 37.0559
lfoot 140.873 -152.019
ltoes 48.3709
718
root -10.2668 16.2905 -13.808 -143.722 -52.2685 -186.477
lowerback -13.8417 -3.30674 -0.514359
upperback -20.177 -8.21209 -1.13494
thorax -15.2303 -5.63319 -0.633505
lowerneck -5.60023 4.28732 -1.41263
upperneck 12.1073 5.20294 4.62343
head 4.37446 2.68329 1.91774
rclavicle 1.38155e-013 3.33958e-014
rhumerus -20.9798 -42.8056 14.5086
rradius 15.0039
rwrist 37.395
rhand 17.1209 0.688812
rfingers 7.12502
rthumb 41.8441 -23.9532
lclavicle 1.38155e-013 3.33958e-014
lhumerus 70.8906 -9.22325 29.4434
lradius 28.4241
lwrist -22.5955
lhand 11.8919 27.1554
lfingers 7.12502
lthumb 36.9184 53.2409
rfemur 298.279 1.03989 -335.97
rtibia 41.5549
rfoot 104.978 -217.076
rtoes 53.6106
lfemur -16.7358 -2.43979 -17.2937
ltibia 36.8812
lfoot 140.189 -152.468
ltoes 49.0987
719
root -10.2761 16.2858 -13.7998 -143.24 -51.3691 -186.719
lowerback -13.798 -3.09607 -0.792443
upperback -20.4047 -8.0639 -1.3996
thorax -15.5859 -5.59133 -0.735235
lowerneck -6.01991 4.37869 -1.2918
upperneck 12.2762 5.26532 4.9955
head 4.48725 2.74616 2.02968
rclavicle 1.00784e-013 4.41302e-014
rhumerus -20.2175 -36.0806 12.6244
rradius 15.4244
rwrist 30.4249
rhand 16.2124 0.126208
rfingers 7.12502
rthumb 40.9917 -24.7928
lclavicle 1.00784e-013 4.41302e-014
lhumerus 71.1896 -7.73011 36.2147
lradius 26.3438
lwrist -29.0917
lhand 14.425 16.9523
lfingers 7.12502
lthumb 39.3102 42.3828
rfemur 297.754 0.562797 -335.816
rtibia 41.7663
rfoot 106.782 -217.515
rtoes 53.1045
lfemur -16.7484 -2.86538 -17.8932
ltibia 36.5971
lfoot 139.01 -153.479
ltoes 49.5838
720
root -10.2873 16.2795 -13.7929 -143.154 -50.7849 -186.569
lowerback -14.1139 -3.26531 -1.10695
upperback -20.3569 -8.24066 -1.08383
thorax -15.2325 -5.60908 -0.264136
lowerneck -5.18148 4.65365 -0.0990157
upperneck 10.3472 5.7767 3.54563
head 4.20979 2.96085 1.50212
rclavicle 2.27608e-014 -1.43125e-014
rhumerus -18.9084 -31.3614 10.5078
rradius 15.8619
rwrist 24.7175
rhand 15.0368 -1.12533
rfingers 7.12502
rthumb 39.8862 -26.3856
lclavicle 2.27608e-014 -1.43125e-014
lhumerus 71.0108 -6.87644 31.4485
lradius 27.7655
lwrist -24.551
lhand 14.1476 17.5189
lfingers 7.12502
lthumb 39.0487 43.025
rfemur 297.429 -0.103287 -335.177
rtibia 41.9087
rfoot 108.583 -217.486
rtoes 52.8815
lfemur -16.7002 -3.19667 -18.0442
ltibia 36.3881
lfoot 137.832 -155.108
ltoes 49.6906
